<?xml version="1.0" encoding="utf-8"?>
<!-- Generator: Adobe Illustrator 24.3.0, SVG Export Plug-In . SVG Version: 6.00 Build 0)  -->
<svg version="1.1" id="Layer_1" xmlns="http://www.w3.org/2000/svg" xmlns:xlink="http://www.w3.org/1999/xlink" x="0px" y="0px"
	 viewBox="0 0 283.5 283.5" style="enable-background:new 0 0 283.5 283.5;" xml:space="preserve">
<g>
	<path d="M121.6,137.5l-8.3,9.8c9.7,0.9,18.4,2,26,3.5c7.6,1.5,14.7,3.1,21.2,4.9c6.5,1.8,12.2,3.7,17.1,5.6
		c17.2,7.2,25.8,17.2,25.8,30.1c0,7.8-3.6,15.5-10.8,23.1s-16.5,14.2-28,20.1c-11.5,5.9-23.3,10.5-35.5,13.8
		c-12.2,3.3-23.2,5-33.1,5c-16.6,0-29.5-3.1-38.7-9.2c-9.3-6.2-13.9-14.6-13.9-25.3c0-7.4,2.8-16.1,8.5-26.2
		c5.7-10,14.4-22.5,26.3-37.4c-8.9-0.4-15.3-1.8-19-4c-3.7-2.2-5.6-5.4-5.6-9.4c0-2.5,0.7-4.4,2.1-5.7c1.4-1.3,3.3-2.3,5.7-2.9
		c2.4-0.6,7-1.3,13.8-2.2c6.8-0.9,15.6-2,26.2-3.3c11.9-14.6,22.5-25.6,32-32.9c9.4-7.4,19.5-11.6,30.3-12.7
		c0.9-0.1,1.8-0.2,2.9-0.2c1,0,1.6,0.3,1.6,0.8c0,0.7-1.2,2.4-3.7,5.2c-2.5,2.8-6.4,7.4-11.9,13.6c-5.5,6.2-12,13.6-19.5,22.1
		c20.5-2.7,37.2-5.9,50.3-9.4c13-3.5,22.9-7.8,29.5-12.7c6.6-4.9,10-10.4,10-16.3c0-7.3-3.5-12.6-10.6-15.9
		c-7.1-3.3-17.9-4.9-32.5-4.9c-8.1,0-17.3,0.8-27.7,2.5c-10.4,1.6-19.8,3.5-28.3,5.6c-8.4,2.1-16,4.3-22.6,6.6
		c-6.6,2.3-9.9,4.1-9.9,5.2c0,0.3,0.3,0.7,1,1c5.3,2,8,3.6,8,4.9c0,1.7-8.2,5.1-24.5,10.1c-16.3,5-27.4,7.4-33,7.4c-4,0-6-2-6-6
		c0-4.8,4.4-13.4,13.2-25.9c8.8-12.5,16.8-20.5,24-24c2.5-1.2,8.3-3.1,17.5-5.7c9.2-2.6,19.2-5.1,30.2-7.5c11-2.4,22.1-4.4,33.4-6
		c11.3-1.6,21.4-2.5,30.1-2.5c20.6,0,36.1,3.7,46.4,11c10.4,7.4,15.5,16.6,15.5,27.7c0,7.5-2.4,14.8-7.1,21.7
		c-4.7,7-12.1,13.6-22.2,19.8c-10,6.2-23.1,11.7-39.2,16.3C162.4,131.4,143.4,135,121.6,137.5z M104.3,158.6
		c-5.7,6.8-10.7,12.7-15.1,17.9c-4.4,5.2-7.6,9.4-9.5,12.6c-1.9,3.2-2.9,6.5-2.9,9.7c0,5.2,2.7,9.9,8.1,14
		c5.4,4.1,13.2,6.1,23.3,6.1c9.4,0,19.4-1.7,30-5c10.6-3.3,19.6-7.7,26.8-13c7.2-5.3,10.9-10.7,10.9-16.2c0-4.7-2.7-8.6-8-11.6
		c-5.3-3.1-13.5-5.7-24.4-8.1C132.6,162.7,119.6,160.5,104.3,158.6z"/>
</g>
</svg>
